<svg width="117" height="144" xmlns="http://www.w3.org/2000/svg" data-name="Layer 1">

 <title>cv job seeker employee unemployee work</title>
 <g>
  <title>Layer 1</title>
  <path id="svg_1" fill="#effafe" d="m20.16,22.3l0,0a4.42,4.42 0 1 0 -0.7,0l0.7,0z" class="cls-1"/>
  <path id="svg_2" fill="#40bdff" d="m4.5,35.12l2.12,0l0,-1.22c0,-4.2 2.1,-8.12 6.78,-10.56a8.54,8.54 0 0 1 -2,-5.42a8.41,8.41 0 0 1 16.83,0a8.57,8.57 0 0 1 -2,5.42c4.69,2.45 6.78,6.39 6.78,10.56l0,1.22l2.1,0l0,-30.62l-30.61,0l0,30.62z" class="cls-2"/>
  <path id="svg_5" fill="#effafe" d="m21.42,26.3c-3.1,0 -3.07,0 -3.22,0a7.61,7.61 0 0 0 -7.6,7.6l0,1.22l18.43,0l0,-1.22a7.61,7.61 0 0 0 -7.61,-7.6z" class="cls-1"/>
  <path id="svg_6" fill="#e4ebed" d="m19.81,13.51a4.36,4.36 0 0 0 -2,0.5a4.37,4.37 0 0 1 0,7.81a4.46,4.46 0 0 0 1.66,0.48l0.7,0a4.4,4.4 0 0 0 -0.37,-8.79l0.01,0z" class="cls-5"/>
  <path id="svg_7" fill="#2197f7" d="m31.13,4.5l0,23.07a11.21,11.21 0 0 1 1.9,6.34l0,1.21l2.1,0l0,-30.62l-4,0z" class="cls-6"/>
  <path id="svg_8" fill="#e4ebed" d="m21.42,26.3c-3.1,0 -3.07,0 -3.22,0l-0.39,0a7.61,7.61 0 0 1 7.21,7.58l0,1.24l4,0l0,-1.22a7.61,7.61 0 0 0 -7.6,-7.6z" class="cls-5"/>
  <path id="svg_13" fill="#ffffff" d="m54.44,5l60.3,0a2.5,2.5 0 0 0 0,-5l-60.3,0a2.5,2.5 0 0 0 0,5z" class="cls-7"/>
  <path id="svg_14" fill="#ffffff" d="m50.78,22.31l64,0a2.5,2.5 0 0 0 0,-5l-64,0a2.5,2.5 0 0 0 0,5z" class="cls-7"/>
  <path id="svg_15" fill="#ffffff" d="m50.78,39.62l64,0a2.5,2.5 0 0 0 0,-5l-64,0a2.5,2.5 0 0 0 0,5z" class="cls-7"/>
  <path id="svg_16" fill="#ffffff" d="m2.5,56.94l112.24,0a2.5,2.5 0 0 0 0,-5l-112.24,0a2.5,2.5 0 0 0 0,5z" class="cls-7"/>
  <path id="svg_17" fill="#ffffff" d="m2.5,74.25l112.24,0a2.5,2.5 0 0 0 0,-5l-112.24,0a2.5,2.5 0 1 0 0,5z" class="cls-7"/>
  <path id="svg_18" fill="#ffffff" d="m2.5,91.57l112.24,0a2.5,2.5 0 0 0 0,-5l-112.24,0a2.5,2.5 0 0 0 0,5z" class="cls-7"/>
  <path id="svg_19" fill="#ffffff" d="m2.5,108.88l112.24,0a2.5,2.5 0 0 0 0,-5l-112.24,0a2.5,2.5 0 0 0 0,5z" class="cls-7"/>
  <path id="svg_20" fill="#ffffff" d="m2.5,126.19l112.24,0a2.5,2.5 0 0 0 0,-5l-112.24,0a2.5,2.5 0 1 0 0,5z" class="cls-7"/>
  <path id="svg_21" fill="#ffffff" d="m2.5,143.51l69,0a2.5,2.5 0 1 0 0,-5l-69,0a2.5,2.5 0 0 0 0,5z" class="cls-7"/>
  <path id="svg_22" fill="#ffffff" d="m2.5,39.62l34.63,0a2.5,2.5 0 0 0 2.5,-2.5l0,-34.62a2.5,2.5 0 0 0 -2.5,-2.5l-34.63,0a2.5,2.5 0 0 0 -2.5,2.5l0,34.62a2.5,2.5 0 0 0 2.5,2.5zm26,-5l-17.4,0l0,-0.72a7.11,7.11 0 0 1 7.1,-7.1l3.22,0a7.11,7.11 0 0 1 7.1,7.1l-0.02,0.72zm-12.6,-16.7a3.91,3.91 0 1 1 4.24,3.88l-0.66,0a3.91,3.91 0 0 1 -3.58,-3.88zm-10.9,-12.92l29.62,0l0,29.62l-1.1,0l0,-0.72a12.11,12.11 0 0 0 -6.53,-10.73a8.91,8.91 0 1 0 -14.37,0a12.11,12.11 0 0 0 -6.53,10.73l0,0.72l-1.1,0l0.01,-29.62z" class="cls-7"/>
 </g>
</svg>